<svg xmlns="http://www.w3.org/2000/svg" viewBox="0 0 24 24" fill="none">
    <path fill="#0080FF" d="M12 24C18.6274 24 24 18.6274 24 12C24 5.37258 18.6274 0 12 0C5.37258 0 0 5.37258 0 12C0 18.6274 5.37258 24 12 24Z"/>
    <path fill="#fff" d="M12 19.8v-3.6c3.6 0 6.3-3.6 4.95-7.35c-.45-1.35-1.65-2.4-3-3C10.2 4.5 6.6 7.2 6.6 10.8H3C3 5.4 8.25 1.2 13.8 2.85c2.55.75 4.65 2.7 5.4 5.25C20.85 13.65 16.65 19.8 12 19.8z"/>
    <path fill="#fff" d="M12 16.2H8.4V12.6H12v3.6zM8.4 18.6H6v-2.4h2.4v2.4zM6 16.2H3.6v-2.4H6v2.4z"/>
</svg> 